<?xml version="1.0" standalone="no"?>
<!DOCTYPE svg PUBLIC "-//W3C//DTD SVG 20010904//EN"
 "http://www.w3.org/TR/2001/REC-SVG-20010904/DTD/svg10.dtd">
<svg version="1.0" xmlns="http://www.w3.org/2000/svg"
 width="1080.000000pt" height="1080.000000pt" viewBox="0 0 1080.000000 1080.000000"
 preserveAspectRatio="xMidYMid meet">
<metadata>
Created by potrace 1.14, written by Peter Selinger 2001-2017
</metadata>
<g transform="translate(0.000000,1080.000000) scale(0.100000,-0.100000)"
fill="#000000" stroke="none">
<path d="M2494 6913 c-11 -2 -37 -21 -56 -41 -38 -40 -1017 -1342 -1036 -1379
-22 -40 -15 -89 18 -126 17 -19 30 -38 30 -42 0 -4 -33 -51 -74 -104 -40 -53
-83 -112 -95 -131 -26 -43 -27 -95 -3 -135 13 -20 205 -154 602 -419 321 -214
597 -393 613 -399 22 -7 40 -6 66 3 19 7 298 188 619 402 619 413 612 407 612
483 0 36 -10 52 -111 186 l-88 116 30 28 c33 32 47 86 32 125 -11 30 -1000
1350 -1047 1397 -31 31 -72 44 -112 36z m-394 -2008 c157 -105 288 -194 292
-200 13 -17 9 -195 -3 -195 -12 0 -806 527 -814 540 -3 4 18 37 45 73 l50 66
73 -47 c39 -26 200 -133 357 -237z m1322 228 c24 -32 47 -63 51 -70 5 -8 -122
-99 -398 -283 -222 -148 -409 -270 -415 -270 -6 0 -10 39 -10 99 l0 98 363
241 c199 133 363 242 364 242 1 0 21 -26 45 -57z"/>
<path d="M4554 5932 c-82 -24 -140 -60 -196 -120 -56 -60 -83 -111 -103 -194
-37 -158 -1 -322 96 -432 80 -90 245 -146 394 -133 58 6 189 46 205 64 4 4 10
54 12 111 l5 102 -32 0 c-31 0 -34 -3 -65 -79 -17 -44 -39 -86 -48 -94 -29
-25 -92 -40 -140 -33 -141 19 -212 142 -212 367 0 201 43 309 144 361 45 23
139 29 173 10 12 -7 41 -48 65 -92 40 -74 45 -80 74 -80 l31 0 -4 93 c-4 68
-9 95 -21 104 -69 55 -266 78 -378 45z"/>
<path d="M5275 5933 c-165 -59 -261 -179 -285 -355 -53 -380 266 -638 589
-477 241 120 292 518 95 729 -69 74 -154 112 -263 117 -65 3 -98 -1 -136 -14z
m205 -82 c66 -45 96 -189 87 -411 -9 -209 -44 -290 -134 -311 -51 -11 -115 1
-145 28 -49 43 -78 171 -78 343 0 172 29 300 78 344 43 38 142 42 192 7z"/>
<path d="M5790 5901 c0 -24 5 -32 25 -37 14 -3 30 -14 35 -24 6 -11 10 -151
10 -340 0 -189 -4 -329 -10 -340 -5 -10 -21 -21 -35 -24 -20 -5 -25 -13 -25
-36 l0 -30 193 0 c128 0 215 5 260 15 139 29 253 118 299 233 19 49 23 75 23
187 0 125 -1 132 -31 195 -34 71 -83 126 -146 166 -79 50 -117 57 -365 61
l-233 5 0 -31z m453 -74 c74 -41 107 -140 107 -322 0 -257 -55 -350 -211 -357
l-64 -3 -3 345 c-1 190 0 351 3 358 7 20 120 6 168 -21z"/>
<path d="M6560 5902 c0 -22 7 -31 33 -43 l32 -14 0 -345 0 -345 -32 -14 c-26
-12 -33 -21 -33 -43 l0 -28 324 0 323 0 7 38 c3 20 6 74 6 120 l0 83 -31 -3
c-28 -3 -33 -10 -63 -78 l-32 -75 -127 -3 -127 -3 2 163 3 163 53 3 c61 4 75
-5 103 -60 15 -29 26 -38 44 -38 l25 0 0 135 0 135 -24 0 c-19 0 -29 -11 -47
-47 l-24 -48 -67 -3 -68 -3 0 151 0 150 110 0 110 0 38 -77 c35 -71 40 -78 67
-78 34 0 31 -13 27 155 l-2 80 -315 0 -315 0 0 -28z"/>
<path d="M7250 5901 c0 -25 5 -32 26 -37 14 -4 30 -17 35 -31 5 -13 9 -163 9
-333 0 -170 -4 -320 -9 -333 -5 -14 -21 -27 -35 -31 -21 -5 -26 -13 -26 -36
l0 -30 180 0 180 0 0 29 c0 25 -6 31 -34 41 -19 6 -37 18 -40 26 -3 9 -6 62
-6 119 l0 102 78 5 c195 12 306 98 319 247 8 86 -11 138 -71 197 -76 77 -112
85 -383 91 l-223 5 0 -31z m410 -70 c44 -31 60 -77 60 -174 0 -141 -28 -181
-133 -193 l-57 -7 0 195 c0 107 3 198 6 201 11 11 98 -4 124 -22z"/>
<path d="M8171 5908 c-5 -13 -64 -183 -131 -378 -67 -195 -127 -361 -133 -368
-5 -6 -24 -16 -41 -20 -25 -7 -32 -14 -34 -40 l-3 -32 110 0 111 0 0 29 c0 23
-6 31 -30 40 -16 5 -30 14 -30 18 0 5 13 47 28 93 l29 85 123 0 123 0 29 -85
c15 -46 28 -88 28 -93 0 -4 -13 -13 -30 -18 -24 -9 -30 -17 -30 -40 l0 -29
493 0 494 0 6 98 c11 166 12 162 -26 162 -30 0 -34 -4 -57 -62 -13 -34 -35
-74 -48 -90 -23 -27 -27 -28 -123 -28 l-99 0 0 349 0 349 30 12 c24 10 30 19
30 41 l0 29 -170 0 -170 0 0 -31 c0 -24 6 -32 30 -40 l30 -11 0 -348 0 -348
-31 -11 c-18 -6 -41 -11 -51 -11 -44 0 -63 42 -192 423 l-129 377 -64 0 c-57
0 -64 -2 -72 -22z m49 -343 c24 -71 45 -136 47 -142 4 -10 -19 -13 -96 -13
l-100 0 39 113 c58 168 62 178 65 175 2 -2 22 -61 45 -133z"/>
</g>
</svg>
